<svg width="305" height="214" viewBox="0 0 305 214" fill="none" xmlns="http://www.w3.org/2000/svg">
<rect width="305" height="214" rx="20" fill="#F7F7F7"/>
<path d="M65.3334 37.8333H38.6667C37.3407 37.8333 36.0689 38.3601 35.1312 39.2978C34.1935 40.2355 33.6667 41.5073 33.6667 42.8333V64.5C33.6667 64.942 33.8423 65.366 34.1549 65.6785C34.4675 65.9911 34.8914 66.1667 35.3334 66.1667H42.0001C42.2746 66.1653 42.5445 66.096 42.7858 65.9652C43.0272 65.8344 43.2324 65.6459 43.3834 65.4167L46.2334 61.1667H57.7667L60.6167 65.4167C60.7677 65.6459 60.973 65.8344 61.2143 65.9652C61.4557 66.096 61.7256 66.1653 62.0001 66.1667H68.6667C69.1088 66.1667 69.5327 65.9911 69.8453 65.6785C70.1578 65.366 70.3334 64.942 70.3334 64.5V42.8333C70.3334 41.5073 69.8066 40.2355 68.8689 39.2978C67.9313 38.3601 66.6595 37.8333 65.3334 37.8333ZM67.0001 62.8333H62.9001L60.0501 58.6667C59.909 58.4219 59.7081 58.217 59.4661 58.0713C59.2241 57.9255 58.9491 57.8436 58.6667 57.8333H45.3334C45.0589 57.8348 44.789 57.904 44.5477 58.0348C44.3063 58.1656 44.1011 58.3541 43.9501 58.5833L41.1001 62.8333H37.0001V54.5H67.0001V62.8333ZM43.6667 51.1667V49.5C43.6667 49.058 43.8423 48.6341 44.1549 48.3215C44.4675 48.0089 44.8914 47.8333 45.3334 47.8333H48.6667C49.1088 47.8333 49.5327 48.0089 49.8453 48.3215C50.1578 48.6341 50.3334 49.058 50.3334 49.5V51.1667H43.6667ZM53.6667 51.1667V49.5C53.6667 49.058 53.8423 48.6341 54.1549 48.3215C54.4675 48.0089 54.8914 47.8333 55.3334 47.8333H58.6667C59.1088 47.8333 59.5327 48.0089 59.8453 48.3215C60.1578 48.6341 60.3334 49.058 60.3334 49.5V51.1667H53.6667ZM67.0001 51.1667H63.6667V49.5C63.6667 48.1739 63.14 46.9022 62.2023 45.9645C61.2646 45.0268 59.9928 44.5 58.6667 44.5H55.3334C54.1 44.5074 52.9128 44.9704 52.0001 45.8C51.0874 44.9704 49.9002 44.5074 48.6667 44.5H45.3334C44.0073 44.5 42.7356 45.0268 41.7979 45.9645C40.8602 46.9022 40.3334 48.1739 40.3334 49.5V51.1667H37.0001V42.8333C37.0001 42.3913 37.1757 41.9674 37.4882 41.6548C37.8008 41.3423 38.2247 41.1667 38.6667 41.1667H65.3334C65.7754 41.1667 66.1994 41.3423 66.5119 41.6548C66.8245 41.9674 67.0001 42.3913 67.0001 42.8333V51.1667Z" fill="#1A1A1A"/>
<path d="M37.481 98.2266V116H33.8311V98.2266H37.481ZM44.1338 105.612V116H40.6182V102.792H43.9141L44.1338 105.612ZM43.6211 108.932H42.6689C42.6689 107.956 42.7951 107.077 43.0474 106.295C43.2996 105.506 43.6536 104.835 44.1094 104.281C44.5651 103.72 45.1063 103.292 45.7329 103C46.3677 102.698 47.0757 102.548 47.8569 102.548C48.4754 102.548 49.041 102.637 49.5537 102.816C50.0664 102.995 50.5059 103.28 50.8721 103.671C51.2464 104.062 51.5312 104.578 51.7266 105.221C51.93 105.864 52.0317 106.649 52.0317 107.577V116H48.4917V107.565C48.4917 106.979 48.4103 106.523 48.2476 106.198C48.0848 105.872 47.8447 105.644 47.5273 105.514C47.2181 105.376 46.8356 105.307 46.3799 105.307C45.9079 105.307 45.4969 105.4 45.147 105.587C44.8052 105.775 44.5203 106.035 44.2925 106.369C44.0728 106.694 43.9059 107.077 43.792 107.516C43.6781 107.956 43.6211 108.428 43.6211 108.932ZM61.1748 102.792V105.282H53.4844V102.792H61.1748ZM55.3887 99.5327H58.9043V112.021C58.9043 112.403 58.9531 112.696 59.0508 112.899C59.1566 113.103 59.3112 113.245 59.5146 113.327C59.7181 113.4 59.9744 113.437 60.2837 113.437C60.5034 113.437 60.6987 113.428 60.8696 113.412C61.0487 113.388 61.1992 113.363 61.3213 113.339L61.3335 115.927C61.0324 116.024 60.7069 116.102 60.3569 116.159C60.007 116.216 59.6204 116.244 59.1973 116.244C58.4242 116.244 57.7487 116.118 57.1709 115.866C56.6012 115.605 56.1618 115.19 55.8525 114.621C55.5433 114.051 55.3887 113.302 55.3887 112.375V99.5327ZM69.2559 116.244C68.2305 116.244 67.3109 116.081 66.4971 115.756C65.6833 115.422 64.9915 114.962 64.4219 114.376C63.8604 113.791 63.429 113.111 63.1279 112.338C62.8268 111.557 62.6763 110.727 62.6763 109.848V109.359C62.6763 108.358 62.8187 107.443 63.1035 106.613C63.3883 105.783 63.7952 105.062 64.3242 104.452C64.8613 103.842 65.5124 103.374 66.2773 103.048C67.0423 102.715 67.9049 102.548 68.8652 102.548C69.8011 102.548 70.6312 102.702 71.3555 103.012C72.0798 103.321 72.686 103.76 73.1743 104.33C73.6707 104.9 74.0451 105.583 74.2974 106.381C74.5496 107.17 74.6758 108.049 74.6758 109.018V110.482H64.1777V108.139H71.2212V107.87C71.2212 107.382 71.1317 106.946 70.9526 106.564C70.7817 106.173 70.5213 105.864 70.1714 105.636C69.8215 105.408 69.3739 105.294 68.8286 105.294C68.3647 105.294 67.966 105.396 67.6323 105.6C67.2987 105.803 67.026 106.088 66.8145 106.454C66.611 106.82 66.4564 107.252 66.3506 107.748C66.2529 108.236 66.2041 108.773 66.2041 109.359V109.848C66.2041 110.377 66.2773 110.865 66.4238 111.312C66.5785 111.76 66.7941 112.147 67.0708 112.472C67.3556 112.798 67.6974 113.05 68.0962 113.229C68.5031 113.408 68.9629 113.498 69.4756 113.498C70.1104 113.498 70.7004 113.375 71.2456 113.131C71.799 112.879 72.2751 112.501 72.6738 111.996L74.3828 113.852C74.1061 114.25 73.7277 114.633 73.2476 114.999C72.7756 115.365 72.2059 115.666 71.5386 115.902C70.8713 116.13 70.1104 116.244 69.2559 116.244ZM80.1934 105.673V116H76.6777V102.792H79.9858L80.1934 105.673ZM84.1729 102.707L84.1118 105.966C83.9409 105.941 83.7334 105.921 83.4893 105.905C83.2533 105.88 83.0376 105.868 82.8423 105.868C82.3459 105.868 81.9146 105.933 81.5483 106.063C81.1903 106.186 80.8892 106.369 80.645 106.613C80.409 106.857 80.23 107.154 80.1079 107.504C79.994 107.854 79.9289 108.253 79.9126 108.7L79.2046 108.48C79.2046 107.626 79.29 106.841 79.4609 106.125C79.6318 105.4 79.88 104.77 80.2056 104.232C80.5392 103.695 80.9461 103.28 81.4263 102.987C81.9064 102.694 82.4557 102.548 83.0742 102.548C83.2695 102.548 83.4689 102.564 83.6724 102.597C83.8758 102.621 84.0426 102.658 84.1729 102.707ZM89.5439 102.792V116H86.0161V102.792H89.5439ZM85.7964 99.3496C85.7964 98.8369 85.9754 98.4137 86.3335 98.0801C86.6916 97.7464 87.1717 97.5796 87.7739 97.5796C88.368 97.5796 88.8441 97.7464 89.2021 98.0801C89.5684 98.4137 89.7515 98.8369 89.7515 99.3496C89.7515 99.8623 89.5684 100.285 89.2021 100.619C88.8441 100.953 88.368 101.12 87.7739 101.12C87.1717 101.12 86.6916 100.953 86.3335 100.619C85.9754 100.285 85.7964 99.8623 85.7964 99.3496ZM91.8877 109.53V109.274C91.8877 108.306 92.026 107.414 92.3027 106.601C92.5794 105.779 92.9823 105.067 93.5112 104.464C94.0402 103.862 94.6912 103.394 95.4644 103.061C96.2375 102.719 97.1245 102.548 98.1255 102.548C99.1265 102.548 100.018 102.719 100.799 103.061C101.58 103.394 102.235 103.862 102.764 104.464C103.301 105.067 103.708 105.779 103.985 106.601C104.262 107.414 104.4 108.306 104.4 109.274V109.53C104.4 110.491 104.262 111.382 103.985 112.204C103.708 113.017 103.301 113.729 102.764 114.34C102.235 114.942 101.584 115.41 100.811 115.744C100.038 116.077 99.1509 116.244 98.1499 116.244C97.1489 116.244 96.2578 116.077 95.4766 115.744C94.7035 115.41 94.0483 114.942 93.5112 114.34C92.9823 113.729 92.5794 113.017 92.3027 112.204C92.026 111.382 91.8877 110.491 91.8877 109.53ZM95.4033 109.274V109.53C95.4033 110.084 95.4521 110.6 95.5498 111.081C95.6475 111.561 95.8021 111.984 96.0137 112.35C96.2334 112.708 96.5182 112.989 96.8682 113.192C97.2181 113.396 97.6453 113.498 98.1499 113.498C98.6382 113.498 99.0573 113.396 99.4072 113.192C99.7572 112.989 100.038 112.708 100.25 112.35C100.461 111.984 100.616 111.561 100.713 111.081C100.819 110.6 100.872 110.084 100.872 109.53V109.274C100.872 108.737 100.819 108.232 100.713 107.76C100.616 107.28 100.457 106.857 100.237 106.491C100.026 106.116 99.745 105.823 99.395 105.612C99.0451 105.4 98.6219 105.294 98.1255 105.294C97.6291 105.294 97.2059 105.4 96.856 105.612C96.5142 105.823 96.2334 106.116 96.0137 106.491C95.8021 106.857 95.6475 107.28 95.5498 107.76C95.4521 108.232 95.4033 108.737 95.4033 109.274ZM110.076 105.673V116H106.561V102.792H109.869L110.076 105.673ZM114.056 102.707L113.995 105.966C113.824 105.941 113.616 105.921 113.372 105.905C113.136 105.88 112.92 105.868 112.725 105.868C112.229 105.868 111.797 105.933 111.431 106.063C111.073 106.186 110.772 106.369 110.528 106.613C110.292 106.857 110.113 107.154 109.991 107.504C109.877 107.854 109.812 108.253 109.795 108.7L109.087 108.48C109.087 107.626 109.173 106.841 109.344 106.125C109.515 105.4 109.763 104.77 110.088 104.232C110.422 103.695 110.829 103.28 111.309 102.987C111.789 102.694 112.339 102.548 112.957 102.548C113.152 102.548 113.352 102.564 113.555 102.597C113.759 102.621 113.925 102.658 114.056 102.707ZM127.618 116H123.748L123.772 113.144H127.618C128.578 113.144 129.388 112.928 130.047 112.497C130.706 112.057 131.202 111.418 131.536 110.58C131.878 109.742 132.049 108.729 132.049 107.541V106.674C132.049 105.762 131.951 104.961 131.756 104.269C131.569 103.577 131.288 102.995 130.914 102.523C130.539 102.051 130.079 101.697 129.534 101.461C128.989 101.217 128.362 101.095 127.654 101.095H123.675V98.2266H127.654C128.842 98.2266 129.929 98.43 130.914 98.8369C131.906 99.2357 132.765 99.8094 133.489 100.558C134.214 101.307 134.771 102.202 135.162 103.244C135.56 104.277 135.76 105.429 135.76 106.698V107.541C135.76 108.802 135.56 109.953 135.162 110.995C134.771 112.037 134.214 112.932 133.489 113.681C132.773 114.421 131.915 114.995 130.914 115.402C129.921 115.801 128.822 116 127.618 116ZM125.823 98.2266V116H122.161V98.2266H125.823ZM144.28 116.244C143.255 116.244 142.335 116.081 141.521 115.756C140.708 115.422 140.016 114.962 139.446 114.376C138.885 113.791 138.453 113.111 138.152 112.338C137.851 111.557 137.701 110.727 137.701 109.848V109.359C137.701 108.358 137.843 107.443 138.128 106.613C138.413 105.783 138.82 105.062 139.349 104.452C139.886 103.842 140.537 103.374 141.302 103.048C142.067 102.715 142.929 102.548 143.89 102.548C144.826 102.548 145.656 102.702 146.38 103.012C147.104 103.321 147.71 103.76 148.199 104.33C148.695 104.9 149.069 105.583 149.322 106.381C149.574 107.17 149.7 108.049 149.7 109.018V110.482H139.202V108.139H146.246V107.87C146.246 107.382 146.156 106.946 145.977 106.564C145.806 106.173 145.546 105.864 145.196 105.636C144.846 105.408 144.398 105.294 143.853 105.294C143.389 105.294 142.99 105.396 142.657 105.6C142.323 105.803 142.05 106.088 141.839 106.454C141.635 106.82 141.481 107.252 141.375 107.748C141.277 108.236 141.229 108.773 141.229 109.359V109.848C141.229 110.377 141.302 110.865 141.448 111.312C141.603 111.76 141.819 112.147 142.095 112.472C142.38 112.798 142.722 113.05 143.121 113.229C143.528 113.408 143.987 113.498 144.5 113.498C145.135 113.498 145.725 113.375 146.27 113.131C146.823 112.879 147.299 112.501 147.698 111.996L149.407 113.852C149.131 114.25 148.752 114.633 148.272 114.999C147.8 115.365 147.23 115.666 146.563 115.902C145.896 116.13 145.135 116.244 144.28 116.244ZM158.843 112.35C158.843 112.098 158.77 111.87 158.624 111.667C158.477 111.463 158.204 111.276 157.806 111.105C157.415 110.926 156.849 110.763 156.109 110.617C155.442 110.47 154.819 110.287 154.241 110.067C153.672 109.84 153.175 109.567 152.752 109.25C152.337 108.932 152.011 108.558 151.775 108.126C151.539 107.687 151.421 107.187 151.421 106.625C151.421 106.072 151.539 105.551 151.775 105.062C152.02 104.574 152.365 104.143 152.813 103.769C153.269 103.386 153.822 103.089 154.473 102.877C155.132 102.658 155.873 102.548 156.695 102.548C157.842 102.548 158.827 102.731 159.649 103.097C160.479 103.463 161.114 103.968 161.553 104.611C162.001 105.246 162.225 105.97 162.225 106.784H158.709C158.709 106.442 158.636 106.137 158.489 105.868C158.351 105.591 158.131 105.376 157.83 105.221C157.537 105.058 157.155 104.977 156.683 104.977C156.292 104.977 155.954 105.046 155.669 105.185C155.385 105.315 155.165 105.494 155.01 105.722C154.864 105.941 154.791 106.186 154.791 106.454C154.791 106.658 154.831 106.841 154.913 107.003C155.002 107.158 155.145 107.3 155.34 107.431C155.535 107.561 155.787 107.683 156.097 107.797C156.414 107.903 156.805 108 157.269 108.09C158.221 108.285 159.071 108.542 159.82 108.859C160.569 109.168 161.163 109.591 161.602 110.128C162.042 110.657 162.261 111.353 162.261 112.216C162.261 112.802 162.131 113.339 161.871 113.827C161.61 114.315 161.236 114.743 160.748 115.109C160.259 115.467 159.673 115.748 158.99 115.951C158.314 116.146 157.553 116.244 156.707 116.244C155.478 116.244 154.437 116.024 153.582 115.585C152.736 115.146 152.093 114.588 151.653 113.913C151.222 113.229 151.006 112.529 151.006 111.813H154.339C154.355 112.293 154.477 112.68 154.705 112.973C154.941 113.266 155.238 113.477 155.596 113.607C155.962 113.738 156.357 113.803 156.78 113.803C157.236 113.803 157.614 113.742 157.916 113.62C158.217 113.489 158.444 113.319 158.599 113.107C158.762 112.887 158.843 112.635 158.843 112.35ZM168.255 102.792V116H164.727V102.792H168.255ZM164.507 99.3496C164.507 98.8369 164.686 98.4137 165.044 98.0801C165.403 97.7464 165.883 97.5796 166.485 97.5796C167.079 97.5796 167.555 97.7464 167.913 98.0801C168.279 98.4137 168.462 98.8369 168.462 99.3496C168.462 99.8623 168.279 100.285 167.913 100.619C167.555 100.953 167.079 101.12 166.485 101.12C165.883 101.12 165.403 100.953 165.044 100.619C164.686 100.285 164.507 99.8623 164.507 99.3496ZM179.522 102.792H182.708V115.561C182.708 116.765 182.439 117.786 181.902 118.625C181.373 119.471 180.633 120.11 179.681 120.541C178.729 120.98 177.622 121.2 176.36 121.2C175.807 121.2 175.221 121.127 174.603 120.98C173.992 120.834 173.406 120.606 172.845 120.297C172.291 119.988 171.827 119.597 171.453 119.125L173.003 117.05C173.41 117.522 173.882 117.888 174.419 118.148C174.957 118.417 175.551 118.551 176.202 118.551C176.836 118.551 177.374 118.433 177.813 118.197C178.252 117.969 178.59 117.632 178.826 117.184C179.062 116.745 179.18 116.212 179.18 115.585V105.844L179.522 102.792ZM170.635 109.555V109.298C170.635 108.289 170.757 107.374 171.001 106.552C171.254 105.722 171.608 105.01 172.063 104.416C172.527 103.821 173.089 103.362 173.748 103.036C174.407 102.711 175.152 102.548 175.982 102.548C176.861 102.548 177.597 102.711 178.191 103.036C178.785 103.362 179.274 103.826 179.656 104.428C180.039 105.022 180.336 105.726 180.547 106.54C180.767 107.345 180.938 108.228 181.06 109.188V109.75C180.938 110.67 180.755 111.524 180.511 112.313C180.267 113.103 179.945 113.795 179.546 114.389C179.148 114.975 178.651 115.43 178.057 115.756C177.471 116.081 176.771 116.244 175.958 116.244C175.144 116.244 174.407 116.077 173.748 115.744C173.097 115.41 172.54 114.942 172.076 114.34C171.612 113.738 171.254 113.03 171.001 112.216C170.757 111.402 170.635 110.515 170.635 109.555ZM174.151 109.298V109.555C174.151 110.1 174.204 110.609 174.31 111.081C174.415 111.553 174.578 111.972 174.798 112.338C175.026 112.696 175.306 112.977 175.64 113.18C175.982 113.375 176.385 113.473 176.849 113.473C177.492 113.473 178.016 113.339 178.423 113.07C178.83 112.794 179.135 112.415 179.339 111.935C179.542 111.455 179.66 110.902 179.693 110.275V108.676C179.677 108.163 179.607 107.703 179.485 107.296C179.363 106.881 179.192 106.527 178.973 106.234C178.753 105.941 178.468 105.714 178.118 105.551C177.768 105.388 177.353 105.307 176.873 105.307C176.409 105.307 176.006 105.412 175.665 105.624C175.331 105.827 175.05 106.108 174.822 106.466C174.603 106.824 174.436 107.248 174.322 107.736C174.208 108.216 174.151 108.737 174.151 109.298ZM188.885 105.612V116H185.369V102.792H188.665L188.885 105.612ZM188.372 108.932H187.42C187.42 107.956 187.546 107.077 187.798 106.295C188.051 105.506 188.405 104.835 188.86 104.281C189.316 103.72 189.857 103.292 190.484 103C191.119 102.698 191.827 102.548 192.608 102.548C193.226 102.548 193.792 102.637 194.305 102.816C194.817 102.995 195.257 103.28 195.623 103.671C195.997 104.062 196.282 104.578 196.478 105.221C196.681 105.864 196.783 106.649 196.783 107.577V116H193.243V107.565C193.243 106.979 193.161 106.523 192.999 106.198C192.836 105.872 192.596 105.644 192.278 105.514C191.969 105.376 191.587 105.307 191.131 105.307C190.659 105.307 190.248 105.4 189.898 105.587C189.556 105.775 189.271 106.035 189.043 106.369C188.824 106.694 188.657 107.077 188.543 107.516C188.429 107.956 188.372 108.428 188.372 108.932Z" fill="#1A1A1A"/>
<path d="M36.3984 151H34.0234L34.0391 149.773H36.3984C37.2109 149.773 37.888 149.604 38.4297 149.266C38.9714 148.922 39.3776 148.443 39.6484 147.828C39.9245 147.208 40.0625 146.484 40.0625 145.656V144.961C40.0625 144.31 39.9844 143.732 39.8281 143.227C39.6719 142.716 39.4427 142.286 39.1406 141.938C38.8385 141.583 38.4688 141.315 38.0312 141.133C37.599 140.951 37.1016 140.859 36.5391 140.859H33.9766V139.625H36.5391C37.2839 139.625 37.9635 139.75 38.5781 140C39.1927 140.245 39.7214 140.602 40.1641 141.07C40.612 141.534 40.9557 142.096 41.1953 142.758C41.4349 143.414 41.5547 144.154 41.5547 144.977V145.656C41.5547 146.479 41.4349 147.221 41.1953 147.883C40.9557 148.539 40.6094 149.099 40.1562 149.562C39.7083 150.026 39.1667 150.383 38.5312 150.633C37.901 150.878 37.1901 151 36.3984 151ZM34.8281 139.625V151H33.3203V139.625H34.8281ZM47.1094 151.156C46.5208 151.156 45.987 151.057 45.5078 150.859C45.0339 150.656 44.625 150.372 44.2812 150.008C43.9427 149.643 43.6823 149.211 43.5 148.711C43.3177 148.211 43.2266 147.664 43.2266 147.07V146.742C43.2266 146.055 43.3281 145.443 43.5312 144.906C43.7344 144.365 44.0104 143.906 44.3594 143.531C44.7083 143.156 45.1042 142.872 45.5469 142.68C45.9896 142.487 46.4479 142.391 46.9219 142.391C47.526 142.391 48.0469 142.495 48.4844 142.703C48.9271 142.911 49.2891 143.203 49.5703 143.578C49.8516 143.948 50.0599 144.385 50.1953 144.891C50.3307 145.391 50.3984 145.938 50.3984 146.531V147.18H44.0859V146H48.9531V145.891C48.9323 145.516 48.8542 145.151 48.7188 144.797C48.5885 144.443 48.3802 144.151 48.0938 143.922C47.8073 143.693 47.4167 143.578 46.9219 143.578C46.5938 143.578 46.2917 143.648 46.0156 143.789C45.7396 143.924 45.5026 144.128 45.3047 144.398C45.1068 144.669 44.9531 145 44.8438 145.391C44.7344 145.781 44.6797 146.232 44.6797 146.742V147.07C44.6797 147.471 44.7344 147.849 44.8438 148.203C44.9583 148.552 45.1224 148.859 45.3359 149.125C45.5547 149.391 45.8177 149.599 46.125 149.75C46.4375 149.901 46.7917 149.977 47.1875 149.977C47.6979 149.977 48.1302 149.872 48.4844 149.664C48.8385 149.456 49.1484 149.177 49.4141 148.828L50.2891 149.523C50.1068 149.799 49.875 150.062 49.5938 150.312C49.3125 150.562 48.9661 150.766 48.5547 150.922C48.1484 151.078 47.6667 151.156 47.1094 151.156ZM57.0078 148.758C57.0078 148.549 56.9609 148.357 56.8672 148.18C56.7786 147.997 56.5938 147.833 56.3125 147.688C56.0365 147.536 55.6198 147.406 55.0625 147.297C54.5938 147.198 54.1693 147.081 53.7891 146.945C53.4141 146.81 53.0938 146.646 52.8281 146.453C52.5677 146.26 52.3672 146.034 52.2266 145.773C52.0859 145.513 52.0156 145.208 52.0156 144.859C52.0156 144.526 52.0885 144.211 52.2344 143.914C52.3854 143.617 52.5964 143.354 52.8672 143.125C53.1432 142.896 53.474 142.716 53.8594 142.586C54.2448 142.456 54.6745 142.391 55.1484 142.391C55.8255 142.391 56.4036 142.51 56.8828 142.75C57.362 142.99 57.7292 143.31 57.9844 143.711C58.2396 144.107 58.3672 144.547 58.3672 145.031H56.9219C56.9219 144.797 56.8516 144.57 56.7109 144.352C56.5755 144.128 56.375 143.943 56.1094 143.797C55.849 143.651 55.5286 143.578 55.1484 143.578C54.7474 143.578 54.4219 143.641 54.1719 143.766C53.9271 143.885 53.7474 144.039 53.6328 144.227C53.5234 144.414 53.4688 144.612 53.4688 144.82C53.4688 144.977 53.4948 145.117 53.5469 145.242C53.6042 145.362 53.7031 145.474 53.8438 145.578C53.9844 145.677 54.1823 145.771 54.4375 145.859C54.6927 145.948 55.0182 146.036 55.4141 146.125C56.1068 146.281 56.6771 146.469 57.125 146.688C57.5729 146.906 57.9062 147.174 58.125 147.492C58.3438 147.81 58.4531 148.195 58.4531 148.648C58.4531 149.018 58.375 149.357 58.2188 149.664C58.0677 149.971 57.8464 150.237 57.5547 150.461C57.2682 150.68 56.9245 150.852 56.5234 150.977C56.1276 151.096 55.6823 151.156 55.1875 151.156C54.4427 151.156 53.8125 151.023 53.2969 150.758C52.7812 150.492 52.3906 150.148 52.125 149.727C51.8594 149.305 51.7266 148.859 51.7266 148.391H53.1797C53.2005 148.786 53.3151 149.102 53.5234 149.336C53.7318 149.565 53.987 149.729 54.2891 149.828C54.5911 149.922 54.8906 149.969 55.1875 149.969C55.5833 149.969 55.9141 149.917 56.1797 149.812C56.4505 149.708 56.6562 149.565 56.7969 149.383C56.9375 149.201 57.0078 148.992 57.0078 148.758ZM61.9219 142.547V151H60.4688V142.547H61.9219ZM60.3594 140.305C60.3594 140.07 60.4297 139.872 60.5703 139.711C60.7161 139.549 60.9297 139.469 61.2109 139.469C61.487 139.469 61.6979 139.549 61.8438 139.711C61.9948 139.872 62.0703 140.07 62.0703 140.305C62.0703 140.529 61.9948 140.721 61.8438 140.883C61.6979 141.039 61.487 141.117 61.2109 141.117C60.9297 141.117 60.7161 141.039 60.5703 140.883C60.4297 140.721 60.3594 140.529 60.3594 140.305ZM69.7188 142.547H71.0312V150.82C71.0312 151.565 70.8802 152.201 70.5781 152.727C70.276 153.253 69.8542 153.651 69.3125 153.922C68.776 154.198 68.1562 154.336 67.4531 154.336C67.1615 154.336 66.8177 154.289 66.4219 154.195C66.0312 154.107 65.6458 153.953 65.2656 153.734C64.8906 153.521 64.5755 153.232 64.3203 152.867L65.0781 152.008C65.4323 152.435 65.8021 152.732 66.1875 152.898C66.5781 153.065 66.9635 153.148 67.3438 153.148C67.8021 153.148 68.1979 153.062 68.5312 152.891C68.8646 152.719 69.1224 152.464 69.3047 152.125C69.4922 151.792 69.5859 151.38 69.5859 150.891V144.406L69.7188 142.547ZM63.8984 146.867V146.703C63.8984 146.057 63.974 145.471 64.125 144.945C64.2812 144.414 64.5026 143.958 64.7891 143.578C65.0807 143.198 65.4323 142.906 65.8438 142.703C66.2552 142.495 66.7188 142.391 67.2344 142.391C67.7656 142.391 68.2292 142.484 68.625 142.672C69.026 142.854 69.3646 143.122 69.6406 143.477C69.9219 143.826 70.1432 144.247 70.3047 144.742C70.4661 145.237 70.5781 145.797 70.6406 146.422V147.141C70.5833 147.76 70.4714 148.318 70.3047 148.812C70.1432 149.307 69.9219 149.729 69.6406 150.078C69.3646 150.427 69.026 150.695 68.625 150.883C68.224 151.065 67.7552 151.156 67.2188 151.156C66.7135 151.156 66.2552 151.049 65.8438 150.836C65.4375 150.622 65.0885 150.323 64.7969 149.938C64.5052 149.552 64.2812 149.099 64.125 148.578C63.974 148.052 63.8984 147.482 63.8984 146.867ZM65.3438 146.703V146.867C65.3438 147.289 65.3854 147.685 65.4688 148.055C65.5573 148.424 65.6901 148.75 65.8672 149.031C66.0495 149.312 66.2812 149.534 66.5625 149.695C66.8438 149.852 67.1797 149.93 67.5703 149.93C68.0495 149.93 68.4453 149.828 68.7578 149.625C69.0703 149.422 69.3177 149.154 69.5 148.82C69.6875 148.487 69.8333 148.125 69.9375 147.734V145.852C69.8802 145.565 69.7917 145.289 69.6719 145.023C69.5573 144.753 69.4062 144.513 69.2188 144.305C69.0365 144.091 68.8099 143.922 68.5391 143.797C68.2682 143.672 67.9505 143.609 67.5859 143.609C67.1901 143.609 66.849 143.693 66.5625 143.859C66.2812 144.021 66.0495 144.245 65.8672 144.531C65.6901 144.812 65.5573 145.141 65.4688 145.516C65.3854 145.885 65.3438 146.281 65.3438 146.703ZM74.6719 144.352V151H73.2266V142.547H74.5938L74.6719 144.352ZM74.3281 146.453L73.7266 146.43C73.7318 145.852 73.8177 145.318 73.9844 144.828C74.151 144.333 74.3854 143.904 74.6875 143.539C74.9896 143.174 75.349 142.893 75.7656 142.695C76.1875 142.492 76.6536 142.391 77.1641 142.391C77.5807 142.391 77.9557 142.448 78.2891 142.562C78.6224 142.672 78.9062 142.849 79.1406 143.094C79.3802 143.339 79.5625 143.656 79.6875 144.047C79.8125 144.432 79.875 144.904 79.875 145.461V151H78.4219V145.445C78.4219 145.003 78.3568 144.648 78.2266 144.383C78.0964 144.112 77.9062 143.917 77.6562 143.797C77.4062 143.672 77.099 143.609 76.7344 143.609C76.375 143.609 76.0469 143.685 75.75 143.836C75.4583 143.987 75.2057 144.195 74.9922 144.461C74.7839 144.727 74.6198 145.031 74.5 145.375C74.3854 145.714 74.3281 146.073 74.3281 146.453ZM83.6406 142.547V151H82.1875V142.547H83.6406ZM82.0781 140.305C82.0781 140.07 82.1484 139.872 82.2891 139.711C82.4349 139.549 82.6484 139.469 82.9297 139.469C83.2057 139.469 83.4167 139.549 83.5625 139.711C83.7135 139.872 83.7891 140.07 83.7891 140.305C83.7891 140.529 83.7135 140.721 83.5625 140.883C83.4167 141.039 83.2057 141.117 82.9297 141.117C82.6484 141.117 82.4349 141.039 82.2891 140.883C82.1484 140.721 82.0781 140.529 82.0781 140.305ZM87.4062 144.352V151H85.9609V142.547H87.3281L87.4062 144.352ZM87.0625 146.453L86.4609 146.43C86.4661 145.852 86.5521 145.318 86.7188 144.828C86.8854 144.333 87.1198 143.904 87.4219 143.539C87.724 143.174 88.0833 142.893 88.5 142.695C88.9219 142.492 89.388 142.391 89.8984 142.391C90.3151 142.391 90.6901 142.448 91.0234 142.562C91.3568 142.672 91.6406 142.849 91.875 143.094C92.1146 143.339 92.2969 143.656 92.4219 144.047C92.5469 144.432 92.6094 144.904 92.6094 145.461V151H91.1562V145.445C91.1562 145.003 91.0911 144.648 90.9609 144.383C90.8307 144.112 90.6406 143.917 90.3906 143.797C90.1406 143.672 89.8333 143.609 89.4688 143.609C89.1094 143.609 88.7812 143.685 88.4844 143.836C88.1927 143.987 87.9401 144.195 87.7266 144.461C87.5182 144.727 87.3542 145.031 87.2344 145.375C87.1198 145.714 87.0625 146.073 87.0625 146.453ZM100.281 142.547H101.594V150.82C101.594 151.565 101.443 152.201 101.141 152.727C100.839 153.253 100.417 153.651 99.875 153.922C99.3385 154.198 98.7188 154.336 98.0156 154.336C97.724 154.336 97.3802 154.289 96.9844 154.195C96.5938 154.107 96.2083 153.953 95.8281 153.734C95.4531 153.521 95.138 153.232 94.8828 152.867L95.6406 152.008C95.9948 152.435 96.3646 152.732 96.75 152.898C97.1406 153.065 97.526 153.148 97.9062 153.148C98.3646 153.148 98.7604 153.062 99.0938 152.891C99.4271 152.719 99.6849 152.464 99.8672 152.125C100.055 151.792 100.148 151.38 100.148 150.891V144.406L100.281 142.547ZM94.4609 146.867V146.703C94.4609 146.057 94.5365 145.471 94.6875 144.945C94.8438 144.414 95.0651 143.958 95.3516 143.578C95.6432 143.198 95.9948 142.906 96.4062 142.703C96.8177 142.495 97.2812 142.391 97.7969 142.391C98.3281 142.391 98.7917 142.484 99.1875 142.672C99.5885 142.854 99.9271 143.122 100.203 143.477C100.484 143.826 100.706 144.247 100.867 144.742C101.029 145.237 101.141 145.797 101.203 146.422V147.141C101.146 147.76 101.034 148.318 100.867 148.812C100.706 149.307 100.484 149.729 100.203 150.078C99.9271 150.427 99.5885 150.695 99.1875 150.883C98.7865 151.065 98.3177 151.156 97.7812 151.156C97.276 151.156 96.8177 151.049 96.4062 150.836C96 150.622 95.651 150.323 95.3594 149.938C95.0677 149.552 94.8438 149.099 94.6875 148.578C94.5365 148.052 94.4609 147.482 94.4609 146.867ZM95.9062 146.703V146.867C95.9062 147.289 95.9479 147.685 96.0312 148.055C96.1198 148.424 96.2526 148.75 96.4297 149.031C96.612 149.312 96.8438 149.534 97.125 149.695C97.4062 149.852 97.7422 149.93 98.1328 149.93C98.612 149.93 99.0078 149.828 99.3203 149.625C99.6328 149.422 99.8802 149.154 100.062 148.82C100.25 148.487 100.396 148.125 100.5 147.734V145.852C100.443 145.565 100.354 145.289 100.234 145.023C100.12 144.753 99.9688 144.513 99.7812 144.305C99.599 144.091 99.3724 143.922 99.1016 143.797C98.8307 143.672 98.513 143.609 98.1484 143.609C97.7526 143.609 97.4115 143.693 97.125 143.859C96.8438 144.021 96.612 144.245 96.4297 144.531C96.2526 144.812 96.1198 145.141 96.0312 145.516C95.9479 145.885 95.9062 146.281 95.9062 146.703ZM112.742 149.555V145.203C112.742 144.87 112.674 144.581 112.539 144.336C112.409 144.086 112.211 143.893 111.945 143.758C111.68 143.622 111.352 143.555 110.961 143.555C110.596 143.555 110.276 143.617 110 143.742C109.729 143.867 109.516 144.031 109.359 144.234C109.208 144.438 109.133 144.656 109.133 144.891H107.688C107.688 144.589 107.766 144.289 107.922 143.992C108.078 143.695 108.302 143.427 108.594 143.188C108.891 142.943 109.245 142.75 109.656 142.609C110.073 142.464 110.536 142.391 111.047 142.391C111.661 142.391 112.203 142.495 112.672 142.703C113.146 142.911 113.516 143.227 113.781 143.648C114.052 144.065 114.188 144.589 114.188 145.219V149.156C114.188 149.438 114.211 149.737 114.258 150.055C114.31 150.372 114.385 150.646 114.484 150.875V151H112.977C112.904 150.833 112.846 150.612 112.805 150.336C112.763 150.055 112.742 149.794 112.742 149.555ZM112.992 145.875L113.008 146.891H111.547C111.135 146.891 110.768 146.924 110.445 146.992C110.122 147.055 109.852 147.151 109.633 147.281C109.414 147.411 109.247 147.576 109.133 147.773C109.018 147.966 108.961 148.193 108.961 148.453C108.961 148.719 109.021 148.961 109.141 149.18C109.26 149.398 109.44 149.573 109.68 149.703C109.924 149.828 110.224 149.891 110.578 149.891C111.021 149.891 111.411 149.797 111.75 149.609C112.089 149.422 112.357 149.193 112.555 148.922C112.758 148.651 112.867 148.388 112.883 148.133L113.5 148.828C113.464 149.047 113.365 149.289 113.203 149.555C113.042 149.82 112.826 150.076 112.555 150.32C112.289 150.56 111.971 150.76 111.602 150.922C111.237 151.078 110.826 151.156 110.367 151.156C109.794 151.156 109.292 151.044 108.859 150.82C108.432 150.596 108.099 150.297 107.859 149.922C107.625 149.542 107.508 149.117 107.508 148.648C107.508 148.195 107.596 147.797 107.773 147.453C107.951 147.104 108.206 146.815 108.539 146.586C108.872 146.352 109.273 146.174 109.742 146.055C110.211 145.935 110.734 145.875 111.312 145.875H112.992ZM117.906 144.352V151H116.461V142.547H117.828L117.906 144.352ZM117.562 146.453L116.961 146.43C116.966 145.852 117.052 145.318 117.219 144.828C117.385 144.333 117.62 143.904 117.922 143.539C118.224 143.174 118.583 142.893 119 142.695C119.422 142.492 119.888 142.391 120.398 142.391C120.815 142.391 121.19 142.448 121.523 142.562C121.857 142.672 122.141 142.849 122.375 143.094C122.615 143.339 122.797 143.656 122.922 144.047C123.047 144.432 123.109 144.904 123.109 145.461V151H121.656V145.445C121.656 145.003 121.591 144.648 121.461 144.383C121.331 144.112 121.141 143.917 120.891 143.797C120.641 143.672 120.333 143.609 119.969 143.609C119.609 143.609 119.281 143.685 118.984 143.836C118.693 143.987 118.44 144.195 118.227 144.461C118.018 144.727 117.854 145.031 117.734 145.375C117.62 145.714 117.562 146.073 117.562 146.453ZM130.633 149.359V139H132.086V151H130.758L130.633 149.359ZM124.945 146.867V146.703C124.945 146.057 125.023 145.471 125.18 144.945C125.341 144.414 125.568 143.958 125.859 143.578C126.156 143.198 126.508 142.906 126.914 142.703C127.326 142.495 127.784 142.391 128.289 142.391C128.82 142.391 129.284 142.484 129.68 142.672C130.081 142.854 130.419 143.122 130.695 143.477C130.977 143.826 131.198 144.247 131.359 144.742C131.521 145.237 131.633 145.797 131.695 146.422V147.141C131.638 147.76 131.526 148.318 131.359 148.812C131.198 149.307 130.977 149.729 130.695 150.078C130.419 150.427 130.081 150.695 129.68 150.883C129.279 151.065 128.81 151.156 128.273 151.156C127.779 151.156 127.326 151.049 126.914 150.836C126.508 150.622 126.156 150.323 125.859 149.938C125.568 149.552 125.341 149.099 125.18 148.578C125.023 148.052 124.945 147.482 124.945 146.867ZM126.398 146.703V146.867C126.398 147.289 126.44 147.685 126.523 148.055C126.612 148.424 126.747 148.75 126.93 149.031C127.112 149.312 127.344 149.534 127.625 149.695C127.906 149.852 128.242 149.93 128.633 149.93C129.112 149.93 129.505 149.828 129.812 149.625C130.125 149.422 130.375 149.154 130.562 148.82C130.75 148.487 130.896 148.125 131 147.734V145.852C130.938 145.565 130.846 145.289 130.727 145.023C130.612 144.753 130.461 144.513 130.273 144.305C130.091 144.091 129.865 143.922 129.594 143.797C129.328 143.672 129.013 143.609 128.648 143.609C128.253 143.609 127.911 143.693 127.625 143.859C127.344 144.021 127.112 144.245 126.93 144.531C126.747 144.812 126.612 145.141 126.523 145.516C126.44 145.885 126.398 146.281 126.398 146.703ZM142.578 145.68H139.695L139.68 144.469H142.297C142.729 144.469 143.107 144.396 143.43 144.25C143.753 144.104 144.003 143.896 144.18 143.625C144.362 143.349 144.453 143.021 144.453 142.641C144.453 142.224 144.372 141.885 144.211 141.625C144.055 141.359 143.812 141.167 143.484 141.047C143.161 140.922 142.75 140.859 142.25 140.859H140.031V151H138.523V139.625H142.25C142.833 139.625 143.354 139.685 143.812 139.805C144.271 139.919 144.659 140.102 144.977 140.352C145.299 140.596 145.544 140.909 145.711 141.289C145.878 141.669 145.961 142.125 145.961 142.656C145.961 143.125 145.841 143.549 145.602 143.93C145.362 144.305 145.029 144.612 144.602 144.852C144.18 145.091 143.685 145.245 143.117 145.312L142.578 145.68ZM142.508 151H139.102L139.953 149.773H142.508C142.987 149.773 143.393 149.69 143.727 149.523C144.065 149.357 144.323 149.122 144.5 148.82C144.677 148.513 144.766 148.151 144.766 147.734C144.766 147.312 144.69 146.948 144.539 146.641C144.388 146.333 144.151 146.096 143.828 145.93C143.505 145.763 143.089 145.68 142.578 145.68H140.43L140.445 144.469H143.383L143.703 144.906C144.25 144.953 144.714 145.109 145.094 145.375C145.474 145.635 145.763 145.969 145.961 146.375C146.164 146.781 146.266 147.229 146.266 147.719C146.266 148.427 146.109 149.026 145.797 149.516C145.49 150 145.055 150.37 144.492 150.625C143.93 150.875 143.268 151 142.508 151ZM153.445 149.047V142.547H154.898V151H153.516L153.445 149.047ZM153.719 147.266L154.32 147.25C154.32 147.812 154.26 148.333 154.141 148.812C154.026 149.286 153.839 149.698 153.578 150.047C153.318 150.396 152.977 150.669 152.555 150.867C152.133 151.06 151.62 151.156 151.016 151.156C150.604 151.156 150.227 151.096 149.883 150.977C149.544 150.857 149.253 150.672 149.008 150.422C148.763 150.172 148.573 149.846 148.438 149.445C148.307 149.044 148.242 148.562 148.242 148V142.547H149.688V148.016C149.688 148.396 149.729 148.711 149.812 148.961C149.901 149.206 150.018 149.401 150.164 149.547C150.315 149.688 150.482 149.786 150.664 149.844C150.852 149.901 151.044 149.93 151.242 149.93C151.857 149.93 152.344 149.812 152.703 149.578C153.062 149.339 153.32 149.018 153.477 148.617C153.638 148.211 153.719 147.76 153.719 147.266ZM158.672 142.547V151H157.219V142.547H158.672ZM157.109 140.305C157.109 140.07 157.18 139.872 157.32 139.711C157.466 139.549 157.68 139.469 157.961 139.469C158.237 139.469 158.448 139.549 158.594 139.711C158.745 139.872 158.82 140.07 158.82 140.305C158.82 140.529 158.745 140.721 158.594 140.883C158.448 141.039 158.237 141.117 157.961 141.117C157.68 141.117 157.466 141.039 157.32 140.883C157.18 140.721 157.109 140.529 157.109 140.305ZM162.562 139V151H161.109V139H162.562ZM170.211 149.359V139H171.664V151H170.336L170.211 149.359ZM164.523 146.867V146.703C164.523 146.057 164.602 145.471 164.758 144.945C164.919 144.414 165.146 143.958 165.438 143.578C165.734 143.198 166.086 142.906 166.492 142.703C166.904 142.495 167.362 142.391 167.867 142.391C168.398 142.391 168.862 142.484 169.258 142.672C169.659 142.854 169.997 143.122 170.273 143.477C170.555 143.826 170.776 144.247 170.938 144.742C171.099 145.237 171.211 145.797 171.273 146.422V147.141C171.216 147.76 171.104 148.318 170.938 148.812C170.776 149.307 170.555 149.729 170.273 150.078C169.997 150.427 169.659 150.695 169.258 150.883C168.857 151.065 168.388 151.156 167.852 151.156C167.357 151.156 166.904 151.049 166.492 150.836C166.086 150.622 165.734 150.323 165.438 149.938C165.146 149.552 164.919 149.099 164.758 148.578C164.602 148.052 164.523 147.482 164.523 146.867ZM165.977 146.703V146.867C165.977 147.289 166.018 147.685 166.102 148.055C166.19 148.424 166.326 148.75 166.508 149.031C166.69 149.312 166.922 149.534 167.203 149.695C167.484 149.852 167.82 149.93 168.211 149.93C168.69 149.93 169.083 149.828 169.391 149.625C169.703 149.422 169.953 149.154 170.141 148.82C170.328 148.487 170.474 148.125 170.578 147.734V145.852C170.516 145.565 170.424 145.289 170.305 145.023C170.19 144.753 170.039 144.513 169.852 144.305C169.669 144.091 169.443 143.922 169.172 143.797C168.906 143.672 168.591 143.609 168.227 143.609C167.831 143.609 167.49 143.693 167.203 143.859C166.922 144.021 166.69 144.245 166.508 144.531C166.326 144.812 166.19 145.141 166.102 145.516C166.018 145.885 165.977 146.281 165.977 146.703ZM175.484 142.547V151H174.031V142.547H175.484ZM173.922 140.305C173.922 140.07 173.992 139.872 174.133 139.711C174.279 139.549 174.492 139.469 174.773 139.469C175.049 139.469 175.26 139.549 175.406 139.711C175.557 139.872 175.633 140.07 175.633 140.305C175.633 140.529 175.557 140.721 175.406 140.883C175.26 141.039 175.049 141.117 174.773 141.117C174.492 141.117 174.279 141.039 174.133 140.883C173.992 140.721 173.922 140.529 173.922 140.305ZM179.25 144.352V151H177.805V142.547H179.172L179.25 144.352ZM178.906 146.453L178.305 146.43C178.31 145.852 178.396 145.318 178.562 144.828C178.729 144.333 178.964 143.904 179.266 143.539C179.568 143.174 179.927 142.893 180.344 142.695C180.766 142.492 181.232 142.391 181.742 142.391C182.159 142.391 182.534 142.448 182.867 142.562C183.201 142.672 183.484 142.849 183.719 143.094C183.958 143.339 184.141 143.656 184.266 144.047C184.391 144.432 184.453 144.904 184.453 145.461V151H183V145.445C183 145.003 182.935 144.648 182.805 144.383C182.674 144.112 182.484 143.917 182.234 143.797C181.984 143.672 181.677 143.609 181.312 143.609C180.953 143.609 180.625 143.685 180.328 143.836C180.036 143.987 179.784 144.195 179.57 144.461C179.362 144.727 179.198 145.031 179.078 145.375C178.964 145.714 178.906 146.073 178.906 146.453ZM192.125 142.547H193.438V150.82C193.438 151.565 193.286 152.201 192.984 152.727C192.682 153.253 192.26 153.651 191.719 153.922C191.182 154.198 190.562 154.336 189.859 154.336C189.568 154.336 189.224 154.289 188.828 154.195C188.438 154.107 188.052 153.953 187.672 153.734C187.297 153.521 186.982 153.232 186.727 152.867L187.484 152.008C187.839 152.435 188.208 152.732 188.594 152.898C188.984 153.065 189.37 153.148 189.75 153.148C190.208 153.148 190.604 153.062 190.938 152.891C191.271 152.719 191.529 152.464 191.711 152.125C191.898 151.792 191.992 151.38 191.992 150.891V144.406L192.125 142.547ZM186.305 146.867V146.703C186.305 146.057 186.38 145.471 186.531 144.945C186.688 144.414 186.909 143.958 187.195 143.578C187.487 143.198 187.839 142.906 188.25 142.703C188.661 142.495 189.125 142.391 189.641 142.391C190.172 142.391 190.635 142.484 191.031 142.672C191.432 142.854 191.771 143.122 192.047 143.477C192.328 143.826 192.549 144.247 192.711 144.742C192.872 145.237 192.984 145.797 193.047 146.422V147.141C192.99 147.76 192.878 148.318 192.711 148.812C192.549 149.307 192.328 149.729 192.047 150.078C191.771 150.427 191.432 150.695 191.031 150.883C190.63 151.065 190.161 151.156 189.625 151.156C189.12 151.156 188.661 151.049 188.25 150.836C187.844 150.622 187.495 150.323 187.203 149.938C186.911 149.552 186.688 149.099 186.531 148.578C186.38 148.052 186.305 147.482 186.305 146.867ZM187.75 146.703V146.867C187.75 147.289 187.792 147.685 187.875 148.055C187.964 148.424 188.096 148.75 188.273 149.031C188.456 149.312 188.688 149.534 188.969 149.695C189.25 149.852 189.586 149.93 189.977 149.93C190.456 149.93 190.852 149.828 191.164 149.625C191.477 149.422 191.724 149.154 191.906 148.82C192.094 148.487 192.24 148.125 192.344 147.734V145.852C192.286 145.565 192.198 145.289 192.078 145.023C191.964 144.753 191.812 144.513 191.625 144.305C191.443 144.091 191.216 143.922 190.945 143.797C190.674 143.672 190.357 143.609 189.992 143.609C189.596 143.609 189.255 143.693 188.969 143.859C188.688 144.021 188.456 144.245 188.273 144.531C188.096 144.812 187.964 145.141 187.875 145.516C187.792 145.885 187.75 146.281 187.75 146.703ZM203.711 139.625V151H202.227V139.625H203.711ZM207.367 139.625V140.859H198.578V139.625H207.367ZM210.281 139V151H208.836V139H210.281ZM209.938 146.453L209.336 146.43C209.341 145.852 209.427 145.318 209.594 144.828C209.76 144.333 209.995 143.904 210.297 143.539C210.599 143.174 210.958 142.893 211.375 142.695C211.797 142.492 212.263 142.391 212.773 142.391C213.19 142.391 213.565 142.448 213.898 142.562C214.232 142.672 214.516 142.849 214.75 143.094C214.99 143.339 215.172 143.656 215.297 144.047C215.422 144.432 215.484 144.904 215.484 145.461V151H214.031V145.445C214.031 145.003 213.966 144.648 213.836 144.383C213.706 144.112 213.516 143.917 213.266 143.797C213.016 143.672 212.708 143.609 212.344 143.609C211.984 143.609 211.656 143.685 211.359 143.836C211.068 143.987 210.815 144.195 210.602 144.461C210.393 144.727 210.229 145.031 210.109 145.375C209.995 145.714 209.938 146.073 209.938 146.453ZM221.156 151.156C220.568 151.156 220.034 151.057 219.555 150.859C219.081 150.656 218.672 150.372 218.328 150.008C217.99 149.643 217.729 149.211 217.547 148.711C217.365 148.211 217.273 147.664 217.273 147.07V146.742C217.273 146.055 217.375 145.443 217.578 144.906C217.781 144.365 218.057 143.906 218.406 143.531C218.755 143.156 219.151 142.872 219.594 142.68C220.036 142.487 220.495 142.391 220.969 142.391C221.573 142.391 222.094 142.495 222.531 142.703C222.974 142.911 223.336 143.203 223.617 143.578C223.898 143.948 224.107 144.385 224.242 144.891C224.378 145.391 224.445 145.938 224.445 146.531V147.18H218.133V146H223V145.891C222.979 145.516 222.901 145.151 222.766 144.797C222.635 144.443 222.427 144.151 222.141 143.922C221.854 143.693 221.464 143.578 220.969 143.578C220.641 143.578 220.339 143.648 220.062 143.789C219.786 143.924 219.549 144.128 219.352 144.398C219.154 144.669 219 145 218.891 145.391C218.781 145.781 218.727 146.232 218.727 146.742V147.07C218.727 147.471 218.781 147.849 218.891 148.203C219.005 148.552 219.169 148.859 219.383 149.125C219.602 149.391 219.865 149.599 220.172 149.75C220.484 149.901 220.839 149.977 221.234 149.977C221.745 149.977 222.177 149.872 222.531 149.664C222.885 149.456 223.195 149.177 223.461 148.828L224.336 149.523C224.154 149.799 223.922 150.062 223.641 150.312C223.359 150.562 223.013 150.766 222.602 150.922C222.195 151.078 221.714 151.156 221.156 151.156ZM230.797 139.625H232.258L235.984 148.898L239.703 139.625H241.172L236.547 151H235.406L230.797 139.625ZM230.32 139.625H231.609L231.82 146.562V151H230.32V139.625ZM240.352 139.625H241.641V151H240.141V146.562L240.352 139.625ZM243.688 146.867V146.688C243.688 146.078 243.776 145.513 243.953 144.992C244.13 144.466 244.385 144.01 244.719 143.625C245.052 143.234 245.456 142.932 245.93 142.719C246.404 142.5 246.935 142.391 247.523 142.391C248.117 142.391 248.651 142.5 249.125 142.719C249.604 142.932 250.01 143.234 250.344 143.625C250.682 144.01 250.94 144.466 251.117 144.992C251.294 145.513 251.383 146.078 251.383 146.688V146.867C251.383 147.477 251.294 148.042 251.117 148.562C250.94 149.083 250.682 149.539 250.344 149.93C250.01 150.315 249.607 150.617 249.133 150.836C248.664 151.049 248.133 151.156 247.539 151.156C246.945 151.156 246.411 151.049 245.938 150.836C245.464 150.617 245.057 150.315 244.719 149.93C244.385 149.539 244.13 149.083 243.953 148.562C243.776 148.042 243.688 147.477 243.688 146.867ZM245.133 146.688V146.867C245.133 147.289 245.182 147.688 245.281 148.062C245.38 148.432 245.529 148.76 245.727 149.047C245.93 149.333 246.182 149.56 246.484 149.727C246.786 149.888 247.138 149.969 247.539 149.969C247.935 149.969 248.281 149.888 248.578 149.727C248.88 149.56 249.13 149.333 249.328 149.047C249.526 148.76 249.674 148.432 249.773 148.062C249.878 147.688 249.93 147.289 249.93 146.867V146.688C249.93 146.271 249.878 145.878 249.773 145.508C249.674 145.133 249.523 144.802 249.32 144.516C249.122 144.224 248.872 143.995 248.57 143.828C248.273 143.661 247.924 143.578 247.523 143.578C247.128 143.578 246.779 143.661 246.477 143.828C246.18 143.995 245.93 144.224 245.727 144.516C245.529 144.802 245.38 145.133 245.281 145.508C245.182 145.878 245.133 146.271 245.133 146.688ZM258.117 148.758C258.117 148.549 258.07 148.357 257.977 148.18C257.888 147.997 257.703 147.833 257.422 147.688C257.146 147.536 256.729 147.406 256.172 147.297C255.703 147.198 255.279 147.081 254.898 146.945C254.523 146.81 254.203 146.646 253.938 146.453C253.677 146.26 253.477 146.034 253.336 145.773C253.195 145.513 253.125 145.208 253.125 144.859C253.125 144.526 253.198 144.211 253.344 143.914C253.495 143.617 253.706 143.354 253.977 143.125C254.253 142.896 254.583 142.716 254.969 142.586C255.354 142.456 255.784 142.391 256.258 142.391C256.935 142.391 257.513 142.51 257.992 142.75C258.471 142.99 258.839 143.31 259.094 143.711C259.349 144.107 259.477 144.547 259.477 145.031H258.031C258.031 144.797 257.961 144.57 257.82 144.352C257.685 144.128 257.484 143.943 257.219 143.797C256.958 143.651 256.638 143.578 256.258 143.578C255.857 143.578 255.531 143.641 255.281 143.766C255.036 143.885 254.857 144.039 254.742 144.227C254.633 144.414 254.578 144.612 254.578 144.82C254.578 144.977 254.604 145.117 254.656 145.242C254.714 145.362 254.812 145.474 254.953 145.578C255.094 145.677 255.292 145.771 255.547 145.859C255.802 145.948 256.128 146.036 256.523 146.125C257.216 146.281 257.786 146.469 258.234 146.688C258.682 146.906 259.016 147.174 259.234 147.492C259.453 147.81 259.562 148.195 259.562 148.648C259.562 149.018 259.484 149.357 259.328 149.664C259.177 149.971 258.956 150.237 258.664 150.461C258.378 150.68 258.034 150.852 257.633 150.977C257.237 151.096 256.792 151.156 256.297 151.156C255.552 151.156 254.922 151.023 254.406 150.758C253.891 150.492 253.5 150.148 253.234 149.727C252.969 149.305 252.836 148.859 252.836 148.391H254.289C254.31 148.786 254.424 149.102 254.633 149.336C254.841 149.565 255.096 149.729 255.398 149.828C255.701 149.922 256 149.969 256.297 149.969C256.693 149.969 257.023 149.917 257.289 149.812C257.56 149.708 257.766 149.565 257.906 149.383C258.047 149.201 258.117 148.992 258.117 148.758ZM265 142.547V143.656H260.43V142.547H265ZM261.977 140.492H263.422V148.906C263.422 149.193 263.466 149.409 263.555 149.555C263.643 149.701 263.758 149.797 263.898 149.844C264.039 149.891 264.19 149.914 264.352 149.914C264.471 149.914 264.596 149.904 264.727 149.883C264.862 149.857 264.964 149.836 265.031 149.82L265.039 151C264.924 151.036 264.773 151.07 264.586 151.102C264.404 151.138 264.182 151.156 263.922 151.156C263.568 151.156 263.242 151.086 262.945 150.945C262.648 150.805 262.411 150.57 262.234 150.242C262.062 149.909 261.977 149.461 261.977 148.898V140.492ZM37.375 169.68H34.4922L34.4766 168.469H37.0938C37.526 168.469 37.9036 168.396 38.2266 168.25C38.5495 168.104 38.7995 167.896 38.9766 167.625C39.1589 167.349 39.25 167.021 39.25 166.641C39.25 166.224 39.1693 165.885 39.0078 165.625C38.8516 165.359 38.6094 165.167 38.2812 165.047C37.9583 164.922 37.5469 164.859 37.0469 164.859H34.8281V175H33.3203V163.625H37.0469C37.6302 163.625 38.151 163.685 38.6094 163.805C39.0677 163.919 39.4557 164.102 39.7734 164.352C40.0964 164.596 40.3411 164.909 40.5078 165.289C40.6745 165.669 40.7578 166.125 40.7578 166.656C40.7578 167.125 40.638 167.549 40.3984 167.93C40.1589 168.305 39.8255 168.612 39.3984 168.852C38.9766 169.091 38.4818 169.245 37.9141 169.312L37.375 169.68ZM37.3047 175H33.8984L34.75 173.773H37.3047C37.7839 173.773 38.1901 173.69 38.5234 173.523C38.862 173.357 39.1198 173.122 39.2969 172.82C39.474 172.513 39.5625 172.151 39.5625 171.734C39.5625 171.312 39.487 170.948 39.3359 170.641C39.1849 170.333 38.9479 170.096 38.625 169.93C38.3021 169.763 37.8854 169.68 37.375 169.68H35.2266L35.2422 168.469H38.1797L38.5 168.906C39.0469 168.953 39.5104 169.109 39.8906 169.375C40.2708 169.635 40.5599 169.969 40.7578 170.375C40.9609 170.781 41.0625 171.229 41.0625 171.719C41.0625 172.427 40.9062 173.026 40.5938 173.516C40.2865 174 39.8516 174.37 39.2891 174.625C38.7266 174.875 38.0651 175 37.3047 175ZM46.5781 175.156C45.9896 175.156 45.4557 175.057 44.9766 174.859C44.5026 174.656 44.0938 174.372 43.75 174.008C43.4115 173.643 43.151 173.211 42.9688 172.711C42.7865 172.211 42.6953 171.664 42.6953 171.07V170.742C42.6953 170.055 42.7969 169.443 43 168.906C43.2031 168.365 43.4792 167.906 43.8281 167.531C44.1771 167.156 44.5729 166.872 45.0156 166.68C45.4583 166.487 45.9167 166.391 46.3906 166.391C46.9948 166.391 47.5156 166.495 47.9531 166.703C48.3958 166.911 48.7578 167.203 49.0391 167.578C49.3203 167.948 49.5286 168.385 49.6641 168.891C49.7995 169.391 49.8672 169.938 49.8672 170.531V171.18H43.5547V170H48.4219V169.891C48.401 169.516 48.3229 169.151 48.1875 168.797C48.0573 168.443 47.849 168.151 47.5625 167.922C47.276 167.693 46.8854 167.578 46.3906 167.578C46.0625 167.578 45.7604 167.648 45.4844 167.789C45.2083 167.924 44.9714 168.128 44.7734 168.398C44.5755 168.669 44.4219 169 44.3125 169.391C44.2031 169.781 44.1484 170.232 44.1484 170.742V171.07C44.1484 171.471 44.2031 171.849 44.3125 172.203C44.4271 172.552 44.5911 172.859 44.8047 173.125C45.0234 173.391 45.2865 173.599 45.5938 173.75C45.9062 173.901 46.2604 173.977 46.6562 173.977C47.1667 173.977 47.599 173.872 47.9531 173.664C48.3073 173.456 48.6172 173.177 48.8828 172.828L49.7578 173.523C49.5755 173.799 49.3438 174.062 49.0625 174.312C48.7812 174.562 48.4349 174.766 48.0234 174.922C47.6172 175.078 47.1354 175.156 46.5781 175.156ZM56.5391 173.555V169.203C56.5391 168.87 56.4714 168.581 56.3359 168.336C56.2057 168.086 56.0078 167.893 55.7422 167.758C55.4766 167.622 55.1484 167.555 54.7578 167.555C54.3932 167.555 54.0729 167.617 53.7969 167.742C53.526 167.867 53.3125 168.031 53.1562 168.234C53.0052 168.438 52.9297 168.656 52.9297 168.891H51.4844C51.4844 168.589 51.5625 168.289 51.7188 167.992C51.875 167.695 52.099 167.427 52.3906 167.188C52.6875 166.943 53.0417 166.75 53.4531 166.609C53.8698 166.464 54.3333 166.391 54.8438 166.391C55.4583 166.391 56 166.495 56.4688 166.703C56.9427 166.911 57.3125 167.227 57.5781 167.648C57.849 168.065 57.9844 168.589 57.9844 169.219V173.156C57.9844 173.438 58.0078 173.737 58.0547 174.055C58.1068 174.372 58.1823 174.646 58.2812 174.875V175H56.7734C56.7005 174.833 56.6432 174.612 56.6016 174.336C56.5599 174.055 56.5391 173.794 56.5391 173.555ZM56.7891 169.875L56.8047 170.891H55.3438C54.9323 170.891 54.5651 170.924 54.2422 170.992C53.9193 171.055 53.6484 171.151 53.4297 171.281C53.2109 171.411 53.0443 171.576 52.9297 171.773C52.8151 171.966 52.7578 172.193 52.7578 172.453C52.7578 172.719 52.8177 172.961 52.9375 173.18C53.0573 173.398 53.237 173.573 53.4766 173.703C53.7214 173.828 54.0208 173.891 54.375 173.891C54.8177 173.891 55.2083 173.797 55.5469 173.609C55.8854 173.422 56.1536 173.193 56.3516 172.922C56.5547 172.651 56.6641 172.388 56.6797 172.133L57.2969 172.828C57.2604 173.047 57.1615 173.289 57 173.555C56.8385 173.82 56.6224 174.076 56.3516 174.32C56.0859 174.56 55.7682 174.76 55.3984 174.922C55.0339 175.078 54.6224 175.156 54.1641 175.156C53.5911 175.156 53.0885 175.044 52.6562 174.82C52.2292 174.596 51.8958 174.297 51.6562 173.922C51.4219 173.542 51.3047 173.117 51.3047 172.648C51.3047 172.195 51.3932 171.797 51.5703 171.453C51.7474 171.104 52.0026 170.815 52.3359 170.586C52.6693 170.352 53.0703 170.174 53.5391 170.055C54.0078 169.935 54.5312 169.875 55.1094 169.875H56.7891ZM65.4297 173.047V166.547H66.8828V175H65.5L65.4297 173.047ZM65.7031 171.266L66.3047 171.25C66.3047 171.812 66.2448 172.333 66.125 172.812C66.0104 173.286 65.8229 173.698 65.5625 174.047C65.3021 174.396 64.9609 174.669 64.5391 174.867C64.1172 175.06 63.6042 175.156 63 175.156C62.5885 175.156 62.2109 175.096 61.8672 174.977C61.5286 174.857 61.237 174.672 60.9922 174.422C60.7474 174.172 60.5573 173.846 60.4219 173.445C60.2917 173.044 60.2266 172.562 60.2266 172V166.547H61.6719V172.016C61.6719 172.396 61.7135 172.711 61.7969 172.961C61.8854 173.206 62.0026 173.401 62.1484 173.547C62.2995 173.688 62.4661 173.786 62.6484 173.844C62.8359 173.901 63.0286 173.93 63.2266 173.93C63.8411 173.93 64.3281 173.812 64.6875 173.578C65.0469 173.339 65.3047 173.018 65.4609 172.617C65.6224 172.211 65.7031 171.76 65.7031 171.266ZM72.625 166.547V167.656H68.0547V166.547H72.625ZM69.6016 164.492H71.0469V172.906C71.0469 173.193 71.0911 173.409 71.1797 173.555C71.2682 173.701 71.3828 173.797 71.5234 173.844C71.6641 173.891 71.8151 173.914 71.9766 173.914C72.0964 173.914 72.2214 173.904 72.3516 173.883C72.487 173.857 72.5885 173.836 72.6562 173.82L72.6641 175C72.5495 175.036 72.3984 175.07 72.2109 175.102C72.0286 175.138 71.8073 175.156 71.5469 175.156C71.1927 175.156 70.8672 175.086 70.5703 174.945C70.2734 174.805 70.0365 174.57 69.8594 174.242C69.6875 173.909 69.6016 173.461 69.6016 172.898V164.492ZM75.8906 166.547V175H74.4375V166.547H75.8906ZM74.3281 164.305C74.3281 164.07 74.3984 163.872 74.5391 163.711C74.6849 163.549 74.8984 163.469 75.1797 163.469C75.4557 163.469 75.6667 163.549 75.8125 163.711C75.9635 163.872 76.0391 164.07 76.0391 164.305C76.0391 164.529 75.9635 164.721 75.8125 164.883C75.6667 165.039 75.4557 165.117 75.1797 165.117C74.8984 165.117 74.6849 165.039 74.5391 164.883C74.3984 164.721 74.3281 164.529 74.3281 164.305ZM80.3672 175H78.9219V165.656C78.9219 165.047 79.0312 164.534 79.25 164.117C79.474 163.695 79.7943 163.378 80.2109 163.164C80.6276 162.945 81.1224 162.836 81.6953 162.836C81.862 162.836 82.0286 162.846 82.1953 162.867C82.3672 162.888 82.5339 162.919 82.6953 162.961L82.6172 164.141C82.5078 164.115 82.3828 164.096 82.2422 164.086C82.1068 164.076 81.9714 164.07 81.8359 164.07C81.5286 164.07 81.263 164.133 81.0391 164.258C80.8203 164.378 80.6536 164.555 80.5391 164.789C80.4245 165.023 80.3672 165.312 80.3672 165.656V175ZM82.1641 166.547V167.656H77.5859V166.547H82.1641ZM88.9453 173.047V166.547H90.3984V175H89.0156L88.9453 173.047ZM89.2188 171.266L89.8203 171.25C89.8203 171.812 89.7604 172.333 89.6406 172.812C89.526 173.286 89.3385 173.698 89.0781 174.047C88.8177 174.396 88.4766 174.669 88.0547 174.867C87.6328 175.06 87.1198 175.156 86.5156 175.156C86.1042 175.156 85.7266 175.096 85.3828 174.977C85.0443 174.857 84.7526 174.672 84.5078 174.422C84.263 174.172 84.0729 173.846 83.9375 173.445C83.8073 173.044 83.7422 172.562 83.7422 172V166.547H85.1875V172.016C85.1875 172.396 85.2292 172.711 85.3125 172.961C85.401 173.206 85.5182 173.401 85.6641 173.547C85.8151 173.688 85.9818 173.786 86.1641 173.844C86.3516 173.901 86.5443 173.93 86.7422 173.93C87.3568 173.93 87.8438 173.812 88.2031 173.578C88.5625 173.339 88.8203 173.018 88.9766 172.617C89.138 172.211 89.2188 171.76 89.2188 171.266ZM94.1719 163V175H92.7188V163H94.1719ZM107.547 171.383H109.047C108.969 172.102 108.763 172.745 108.43 173.312C108.096 173.88 107.625 174.331 107.016 174.664C106.406 174.992 105.646 175.156 104.734 175.156C104.068 175.156 103.461 175.031 102.914 174.781C102.372 174.531 101.906 174.177 101.516 173.719C101.125 173.255 100.823 172.701 100.609 172.055C100.401 171.404 100.297 170.68 100.297 169.883V168.75C100.297 167.953 100.401 167.232 100.609 166.586C100.823 165.935 101.128 165.378 101.523 164.914C101.924 164.451 102.406 164.094 102.969 163.844C103.531 163.594 104.164 163.469 104.867 163.469C105.727 163.469 106.453 163.63 107.047 163.953C107.641 164.276 108.102 164.724 108.43 165.297C108.763 165.865 108.969 166.523 109.047 167.273H107.547C107.474 166.742 107.339 166.286 107.141 165.906C106.943 165.521 106.661 165.224 106.297 165.016C105.932 164.807 105.456 164.703 104.867 164.703C104.362 164.703 103.917 164.799 103.531 164.992C103.151 165.185 102.831 165.458 102.57 165.812C102.315 166.167 102.122 166.591 101.992 167.086C101.862 167.581 101.797 168.13 101.797 168.734V169.883C101.797 170.44 101.854 170.964 101.969 171.453C102.089 171.943 102.268 172.372 102.508 172.742C102.747 173.112 103.052 173.404 103.422 173.617C103.792 173.826 104.229 173.93 104.734 173.93C105.375 173.93 105.885 173.828 106.266 173.625C106.646 173.422 106.932 173.13 107.125 172.75C107.323 172.37 107.464 171.914 107.547 171.383ZM116.055 173.047V166.547H117.508V175H116.125L116.055 173.047ZM116.328 171.266L116.93 171.25C116.93 171.812 116.87 172.333 116.75 172.812C116.635 173.286 116.448 173.698 116.188 174.047C115.927 174.396 115.586 174.669 115.164 174.867C114.742 175.06 114.229 175.156 113.625 175.156C113.214 175.156 112.836 175.096 112.492 174.977C112.154 174.857 111.862 174.672 111.617 174.422C111.372 174.172 111.182 173.846 111.047 173.445C110.917 173.044 110.852 172.562 110.852 172V166.547H112.297V172.016C112.297 172.396 112.339 172.711 112.422 172.961C112.51 173.206 112.628 173.401 112.773 173.547C112.924 173.688 113.091 173.786 113.273 173.844C113.461 173.901 113.654 173.93 113.852 173.93C114.466 173.93 114.953 173.812 115.312 173.578C115.672 173.339 115.93 173.018 116.086 172.617C116.247 172.211 116.328 171.76 116.328 171.266ZM124.633 172.758C124.633 172.549 124.586 172.357 124.492 172.18C124.404 171.997 124.219 171.833 123.938 171.688C123.661 171.536 123.245 171.406 122.688 171.297C122.219 171.198 121.794 171.081 121.414 170.945C121.039 170.81 120.719 170.646 120.453 170.453C120.193 170.26 119.992 170.034 119.852 169.773C119.711 169.513 119.641 169.208 119.641 168.859C119.641 168.526 119.714 168.211 119.859 167.914C120.01 167.617 120.221 167.354 120.492 167.125C120.768 166.896 121.099 166.716 121.484 166.586C121.87 166.456 122.299 166.391 122.773 166.391C123.451 166.391 124.029 166.51 124.508 166.75C124.987 166.99 125.354 167.31 125.609 167.711C125.865 168.107 125.992 168.547 125.992 169.031H124.547C124.547 168.797 124.477 168.57 124.336 168.352C124.201 168.128 124 167.943 123.734 167.797C123.474 167.651 123.154 167.578 122.773 167.578C122.372 167.578 122.047 167.641 121.797 167.766C121.552 167.885 121.372 168.039 121.258 168.227C121.148 168.414 121.094 168.612 121.094 168.82C121.094 168.977 121.12 169.117 121.172 169.242C121.229 169.362 121.328 169.474 121.469 169.578C121.609 169.677 121.807 169.771 122.062 169.859C122.318 169.948 122.643 170.036 123.039 170.125C123.732 170.281 124.302 170.469 124.75 170.688C125.198 170.906 125.531 171.174 125.75 171.492C125.969 171.81 126.078 172.195 126.078 172.648C126.078 173.018 126 173.357 125.844 173.664C125.693 173.971 125.471 174.237 125.18 174.461C124.893 174.68 124.549 174.852 124.148 174.977C123.753 175.096 123.307 175.156 122.812 175.156C122.068 175.156 121.438 175.023 120.922 174.758C120.406 174.492 120.016 174.148 119.75 173.727C119.484 173.305 119.352 172.859 119.352 172.391H120.805C120.826 172.786 120.94 173.102 121.148 173.336C121.357 173.565 121.612 173.729 121.914 173.828C122.216 173.922 122.516 173.969 122.812 173.969C123.208 173.969 123.539 173.917 123.805 173.812C124.076 173.708 124.281 173.565 124.422 173.383C124.562 173.201 124.633 172.992 124.633 172.758ZM131.516 166.547V167.656H126.945V166.547H131.516ZM128.492 164.492H129.938V172.906C129.938 173.193 129.982 173.409 130.07 173.555C130.159 173.701 130.273 173.797 130.414 173.844C130.555 173.891 130.706 173.914 130.867 173.914C130.987 173.914 131.112 173.904 131.242 173.883C131.378 173.857 131.479 173.836 131.547 173.82L131.555 175C131.44 175.036 131.289 175.07 131.102 175.102C130.919 175.138 130.698 175.156 130.438 175.156C130.083 175.156 129.758 175.086 129.461 174.945C129.164 174.805 128.927 174.57 128.75 174.242C128.578 173.909 128.492 173.461 128.492 172.898V164.492ZM132.672 170.867V170.688C132.672 170.078 132.76 169.513 132.938 168.992C133.115 168.466 133.37 168.01 133.703 167.625C134.036 167.234 134.44 166.932 134.914 166.719C135.388 166.5 135.919 166.391 136.508 166.391C137.102 166.391 137.635 166.5 138.109 166.719C138.589 166.932 138.995 167.234 139.328 167.625C139.667 168.01 139.924 168.466 140.102 168.992C140.279 169.513 140.367 170.078 140.367 170.688V170.867C140.367 171.477 140.279 172.042 140.102 172.562C139.924 173.083 139.667 173.539 139.328 173.93C138.995 174.315 138.591 174.617 138.117 174.836C137.648 175.049 137.117 175.156 136.523 175.156C135.93 175.156 135.396 175.049 134.922 174.836C134.448 174.617 134.042 174.315 133.703 173.93C133.37 173.539 133.115 173.083 132.938 172.562C132.76 172.042 132.672 171.477 132.672 170.867ZM134.117 170.688V170.867C134.117 171.289 134.167 171.688 134.266 172.062C134.365 172.432 134.513 172.76 134.711 173.047C134.914 173.333 135.167 173.56 135.469 173.727C135.771 173.888 136.122 173.969 136.523 173.969C136.919 173.969 137.266 173.888 137.562 173.727C137.865 173.56 138.115 173.333 138.312 173.047C138.51 172.76 138.659 172.432 138.758 172.062C138.862 171.688 138.914 171.289 138.914 170.867V170.688C138.914 170.271 138.862 169.878 138.758 169.508C138.659 169.133 138.508 168.802 138.305 168.516C138.107 168.224 137.857 167.995 137.555 167.828C137.258 167.661 136.909 167.578 136.508 167.578C136.112 167.578 135.763 167.661 135.461 167.828C135.164 167.995 134.914 168.224 134.711 168.516C134.513 168.802 134.365 169.133 134.266 169.508C134.167 169.878 134.117 170.271 134.117 170.688ZM143.617 168.227V175H142.164V166.547H143.539L143.617 168.227ZM143.32 170.453L142.648 170.43C142.654 169.852 142.729 169.318 142.875 168.828C143.021 168.333 143.237 167.904 143.523 167.539C143.81 167.174 144.167 166.893 144.594 166.695C145.021 166.492 145.516 166.391 146.078 166.391C146.474 166.391 146.839 166.448 147.172 166.562C147.505 166.672 147.794 166.846 148.039 167.086C148.284 167.326 148.474 167.633 148.609 168.008C148.745 168.383 148.812 168.836 148.812 169.367V175H147.367V169.438C147.367 168.995 147.292 168.641 147.141 168.375C146.995 168.109 146.786 167.917 146.516 167.797C146.245 167.672 145.927 167.609 145.562 167.609C145.135 167.609 144.779 167.685 144.492 167.836C144.206 167.987 143.977 168.195 143.805 168.461C143.633 168.727 143.508 169.031 143.43 169.375C143.357 169.714 143.32 170.073 143.32 170.453ZM148.797 169.656L147.828 169.953C147.833 169.49 147.909 169.044 148.055 168.617C148.206 168.19 148.422 167.81 148.703 167.477C148.99 167.143 149.341 166.88 149.758 166.688C150.174 166.49 150.651 166.391 151.188 166.391C151.641 166.391 152.042 166.451 152.391 166.57C152.745 166.69 153.042 166.875 153.281 167.125C153.526 167.37 153.711 167.685 153.836 168.07C153.961 168.456 154.023 168.914 154.023 169.445V175H152.57V169.43C152.57 168.956 152.495 168.589 152.344 168.328C152.198 168.062 151.99 167.878 151.719 167.773C151.453 167.664 151.135 167.609 150.766 167.609C150.448 167.609 150.167 167.664 149.922 167.773C149.677 167.883 149.471 168.034 149.305 168.227C149.138 168.414 149.01 168.63 148.922 168.875C148.839 169.12 148.797 169.38 148.797 169.656ZM167.828 168.516V169.742H161.672V168.516H167.828ZM161.906 163.625V175H160.398V163.625H161.906ZM169.141 163.625V175H167.641V163.625H169.141ZM171.219 170.867V170.688C171.219 170.078 171.307 169.513 171.484 168.992C171.661 168.466 171.917 168.01 172.25 167.625C172.583 167.234 172.987 166.932 173.461 166.719C173.935 166.5 174.466 166.391 175.055 166.391C175.648 166.391 176.182 166.5 176.656 166.719C177.135 166.932 177.542 167.234 177.875 167.625C178.214 168.01 178.471 168.466 178.648 168.992C178.826 169.513 178.914 170.078 178.914 170.688V170.867C178.914 171.477 178.826 172.042 178.648 172.562C178.471 173.083 178.214 173.539 177.875 173.93C177.542 174.315 177.138 174.617 176.664 174.836C176.195 175.049 175.664 175.156 175.07 175.156C174.477 175.156 173.943 175.049 173.469 174.836C172.995 174.617 172.589 174.315 172.25 173.93C171.917 173.539 171.661 173.083 171.484 172.562C171.307 172.042 171.219 171.477 171.219 170.867ZM172.664 170.688V170.867C172.664 171.289 172.714 171.688 172.812 172.062C172.911 172.432 173.06 172.76 173.258 173.047C173.461 173.333 173.714 173.56 174.016 173.727C174.318 173.888 174.669 173.969 175.07 173.969C175.466 173.969 175.812 173.888 176.109 173.727C176.411 173.56 176.661 173.333 176.859 173.047C177.057 172.76 177.206 172.432 177.305 172.062C177.409 171.688 177.461 171.289 177.461 170.867V170.688C177.461 170.271 177.409 169.878 177.305 169.508C177.206 169.133 177.055 168.802 176.852 168.516C176.654 168.224 176.404 167.995 176.102 167.828C175.805 167.661 175.456 167.578 175.055 167.578C174.659 167.578 174.31 167.661 174.008 167.828C173.711 167.995 173.461 168.224 173.258 168.516C173.06 168.802 172.911 169.133 172.812 169.508C172.714 169.878 172.664 170.271 172.664 170.688ZM182.164 168.227V175H180.711V166.547H182.086L182.164 168.227ZM181.867 170.453L181.195 170.43C181.201 169.852 181.276 169.318 181.422 168.828C181.568 168.333 181.784 167.904 182.07 167.539C182.357 167.174 182.714 166.893 183.141 166.695C183.568 166.492 184.062 166.391 184.625 166.391C185.021 166.391 185.385 166.448 185.719 166.562C186.052 166.672 186.341 166.846 186.586 167.086C186.831 167.326 187.021 167.633 187.156 168.008C187.292 168.383 187.359 168.836 187.359 169.367V175H185.914V169.438C185.914 168.995 185.839 168.641 185.688 168.375C185.542 168.109 185.333 167.917 185.062 167.797C184.792 167.672 184.474 167.609 184.109 167.609C183.682 167.609 183.326 167.685 183.039 167.836C182.753 167.987 182.523 168.195 182.352 168.461C182.18 168.727 182.055 169.031 181.977 169.375C181.904 169.714 181.867 170.073 181.867 170.453ZM187.344 169.656L186.375 169.953C186.38 169.49 186.456 169.044 186.602 168.617C186.753 168.19 186.969 167.81 187.25 167.477C187.536 167.143 187.888 166.88 188.305 166.688C188.721 166.49 189.198 166.391 189.734 166.391C190.188 166.391 190.589 166.451 190.938 166.57C191.292 166.69 191.589 166.875 191.828 167.125C192.073 167.37 192.258 167.685 192.383 168.07C192.508 168.456 192.57 168.914 192.57 169.445V175H191.117V169.43C191.117 168.956 191.042 168.589 190.891 168.328C190.745 168.062 190.536 167.878 190.266 167.773C190 167.664 189.682 167.609 189.312 167.609C188.995 167.609 188.714 167.664 188.469 167.773C188.224 167.883 188.018 168.034 187.852 168.227C187.685 168.414 187.557 168.63 187.469 168.875C187.385 169.12 187.344 169.38 187.344 169.656ZM198.266 175.156C197.677 175.156 197.143 175.057 196.664 174.859C196.19 174.656 195.781 174.372 195.438 174.008C195.099 173.643 194.839 173.211 194.656 172.711C194.474 172.211 194.383 171.664 194.383 171.07V170.742C194.383 170.055 194.484 169.443 194.688 168.906C194.891 168.365 195.167 167.906 195.516 167.531C195.865 167.156 196.26 166.872 196.703 166.68C197.146 166.487 197.604 166.391 198.078 166.391C198.682 166.391 199.203 166.495 199.641 166.703C200.083 166.911 200.445 167.203 200.727 167.578C201.008 167.948 201.216 168.385 201.352 168.891C201.487 169.391 201.555 169.938 201.555 170.531V171.18H195.242V170H200.109V169.891C200.089 169.516 200.01 169.151 199.875 168.797C199.745 168.443 199.536 168.151 199.25 167.922C198.964 167.693 198.573 167.578 198.078 167.578C197.75 167.578 197.448 167.648 197.172 167.789C196.896 167.924 196.659 168.128 196.461 168.398C196.263 168.669 196.109 169 196 169.391C195.891 169.781 195.836 170.232 195.836 170.742V171.07C195.836 171.471 195.891 171.849 196 172.203C196.115 172.552 196.279 172.859 196.492 173.125C196.711 173.391 196.974 173.599 197.281 173.75C197.594 173.901 197.948 173.977 198.344 173.977C198.854 173.977 199.286 173.872 199.641 173.664C199.995 173.456 200.305 173.177 200.57 172.828L201.445 173.523C201.263 173.799 201.031 174.062 200.75 174.312C200.469 174.562 200.122 174.766 199.711 174.922C199.305 175.078 198.823 175.156 198.266 175.156ZM208.164 172.758C208.164 172.549 208.117 172.357 208.023 172.18C207.935 171.997 207.75 171.833 207.469 171.688C207.193 171.536 206.776 171.406 206.219 171.297C205.75 171.198 205.326 171.081 204.945 170.945C204.57 170.81 204.25 170.646 203.984 170.453C203.724 170.26 203.523 170.034 203.383 169.773C203.242 169.513 203.172 169.208 203.172 168.859C203.172 168.526 203.245 168.211 203.391 167.914C203.542 167.617 203.753 167.354 204.023 167.125C204.299 166.896 204.63 166.716 205.016 166.586C205.401 166.456 205.831 166.391 206.305 166.391C206.982 166.391 207.56 166.51 208.039 166.75C208.518 166.99 208.885 167.31 209.141 167.711C209.396 168.107 209.523 168.547 209.523 169.031H208.078C208.078 168.797 208.008 168.57 207.867 168.352C207.732 168.128 207.531 167.943 207.266 167.797C207.005 167.651 206.685 167.578 206.305 167.578C205.904 167.578 205.578 167.641 205.328 167.766C205.083 167.885 204.904 168.039 204.789 168.227C204.68 168.414 204.625 168.612 204.625 168.82C204.625 168.977 204.651 169.117 204.703 169.242C204.76 169.362 204.859 169.474 205 169.578C205.141 169.677 205.339 169.771 205.594 169.859C205.849 169.948 206.174 170.036 206.57 170.125C207.263 170.281 207.833 170.469 208.281 170.688C208.729 170.906 209.062 171.174 209.281 171.492C209.5 171.81 209.609 172.195 209.609 172.648C209.609 173.018 209.531 173.357 209.375 173.664C209.224 173.971 209.003 174.237 208.711 174.461C208.424 174.68 208.081 174.852 207.68 174.977C207.284 175.096 206.839 175.156 206.344 175.156C205.599 175.156 204.969 175.023 204.453 174.758C203.938 174.492 203.547 174.148 203.281 173.727C203.016 173.305 202.883 172.859 202.883 172.391H204.336C204.357 172.786 204.471 173.102 204.68 173.336C204.888 173.565 205.143 173.729 205.445 173.828C205.747 173.922 206.047 173.969 206.344 173.969C206.74 173.969 207.07 173.917 207.336 173.812C207.607 173.708 207.812 173.565 207.953 173.383C208.094 173.201 208.164 172.992 208.164 172.758ZM211.531 174.234C211.531 173.99 211.607 173.784 211.758 173.617C211.914 173.445 212.138 173.359 212.43 173.359C212.721 173.359 212.943 173.445 213.094 173.617C213.25 173.784 213.328 173.99 213.328 174.234C213.328 174.474 213.25 174.677 213.094 174.844C212.943 175.01 212.721 175.094 212.43 175.094C212.138 175.094 211.914 175.01 211.758 174.844C211.607 174.677 211.531 174.474 211.531 174.234Z" fill="#4E4B66"/>
</svg>
